<svg width="4405" height="2480" xmlns="http://www.w3.org/2000/svg" xmlns:xlink="http://www.w3.org/1999/xlink" xml:space="preserve" overflow="hidden"><g transform="translate(2 2)"><rect x="0.499836" y="0.499836" width="4400" height="2475" stroke="#172C51" stroke-width="4.58333" stroke-miterlimit="8" fill="#FBE5D6"/><text font-family="SimSun,SimSun_MSFontService,sans-serif" font-weight="400" font-size="83" transform="matrix(1 0 0 1 1705 203)">多图层矢量图图显</text><text font-family="SimSun,SimSun_MSFontService,sans-serif" font-weight="400" font-size="83" transform="matrix(1 0 0 1 2365 203)">展示</text><text font-family="SimSun,SimSun_MSFontService,sans-serif" font-weight="400" font-size="83" transform="matrix(1 0 0 1 2530 203)">平台</text><rect x="2289" y="305" width="1714" height="877" stroke="#172C51" stroke-width="10.3125" stroke-miterlimit="8" fill="none"/><rect x="397" y="305" width="1714" height="877" stroke="#172C51" stroke-width="10.3125" stroke-miterlimit="8" fill="none"/><rect x="2289" y="1293" width="1714" height="877" stroke="#172C51" stroke-width="10.3125" stroke-miterlimit="8" fill="none"/><rect x="397" y="1293" width="1714" height="877" stroke="#172C51" stroke-width="10.3125" stroke-miterlimit="8" fill="none"/><text font-family="DengXian,DengXian_MSFontService,sans-serif" font-weight="700" font-size="128" transform="matrix(1 0 0 1 930.066 785)">第一会议室</text><text font-family="DengXian,DengXian_MSFontService,sans-serif" font-weight="700" font-size="128" transform="matrix(1 0 0 1 2821.36 785)">第二会议室</text><text font-family="DengXian,DengXian_MSFontService,sans-serif" font-weight="700" font-size="128" transform="matrix(1 0 0 1 930.066 1774)">第三会议室</text><text font-family="DengXian,DengXian_MSFontService,sans-serif" font-weight="700" font-size="128" transform="matrix(1 0 0 1 2821.36 1774)">第四会议室</text><text font-family="DengXian,DengXian_MSFontService,sans-serif" font-weight="400" font-size="37" transform="matrix(1 0 0 1 4035.58 2332)">小字缩放测试</text></g></svg>